<svg width="20" height="13" viewBox="0 0 20 13" fill="none" xmlns="http://www.w3.org/2000/svg">
<g clip-path="url(#clip0_113_124)">
<path d="M16.6538 11.1429H0.259277V13H19.5696V11.1429H16.6538ZM18.6041 10.2143C18.3434 6.435 15.4662 3.34286 11.691 2.59071C11.7875 2.36786 11.8455 2.11714 11.8455 1.85714C11.8455 0.835712 10.9765 0 9.91444 0C8.85238 0 7.98341 0.835712 7.98341 1.85714C7.98341 2.11714 8.04134 2.36786 8.13789 2.59071C4.36273 3.34286 1.48549 6.435 1.2248 10.2143H18.6041ZM9.91444 4.25286C12.7627 4.25286 15.1958 5.95214 16.1903 8.34789H3.63859C4.63307 5.95214 7.06617 4.25286 9.91444 4.25286Z" fill="#333333"/>
</g>
<defs>
<clipPath id="clip0_113_124">
<rect width="20" height="13" fill="white"/>
</clipPath>
</defs>
</svg>
